<mxfile host="app.diagrams.net" modified="2023-02-21T13:40:06.390Z" agent="5.0 (Macintosh; Intel Mac OS X 10_15_7) AppleWebKit/537.36 (KHTML, like Gecko) Chrome/112.0.0.0 Safari/537.36" etag="PagpCUqCJ2PViff8TF1Q" version="20.8.21" type="github">
  <diagram name="Page-1" id="awNu_3DlOISEKZ05TdpL">
    <mxGraphModel dx="1194" dy="740" grid="1" gridSize="10" guides="1" tooltips="1" connect="0" arrows="1" fold="1" page="1" pageScale="1" pageWidth="850" pageHeight="1100" math="0" shadow="0">
      <root>
        <mxCell id="0" />
        <mxCell id="1" parent="0" />
        <mxCell id="EYEKu2959EoNq3203nXm-22" value="" style="edgeStyle=none;rounded=0;orthogonalLoop=1;jettySize=auto;html=1;shape=link;" parent="1" source="EYEKu2959EoNq3203nXm-20" target="EYEKu2959EoNq3203nXm-21" edge="1">
          <mxGeometry relative="1" as="geometry" />
        </mxCell>
        <mxCell id="EYEKu2959EoNq3203nXm-24" value="" style="edgeStyle=none;rounded=0;orthogonalLoop=1;jettySize=auto;html=1;shape=link;" parent="1" source="EYEKu2959EoNq3203nXm-20" target="EYEKu2959EoNq3203nXm-23" edge="1">
          <mxGeometry relative="1" as="geometry" />
        </mxCell>
        <mxCell id="EYEKu2959EoNq3203nXm-28" value="" style="edgeStyle=orthogonalEdgeStyle;rounded=0;orthogonalLoop=1;jettySize=auto;html=1;" parent="1" source="EYEKu2959EoNq3203nXm-20" target="EYEKu2959EoNq3203nXm-27" edge="1">
          <mxGeometry relative="1" as="geometry" />
        </mxCell>
        <mxCell id="EYEKu2959EoNq3203nXm-20" value="&lt;font face=&quot;Comic Sans MS&quot;&gt;&lt;b&gt;body&lt;/b&gt;&lt;/font&gt;" style="ellipse;whiteSpace=wrap;html=1;fillColor=#ffe6cc;fillStyle=auto;strokeColor=#d79b00;sketch=1;curveFitting=1;jiggle=2;" parent="1" vertex="1">
          <mxGeometry x="365" y="60" width="120" height="80" as="geometry" />
        </mxCell>
        <mxCell id="EYEKu2959EoNq3203nXm-32" value="" style="edgeStyle=orthogonalEdgeStyle;rounded=0;orthogonalLoop=1;jettySize=auto;html=1;fontFamily=Comic Sans MS;" parent="1" source="EYEKu2959EoNq3203nXm-21" target="EYEKu2959EoNq3203nXm-31" edge="1">
          <mxGeometry relative="1" as="geometry" />
        </mxCell>
        <mxCell id="EYEKu2959EoNq3203nXm-21" value="&lt;b&gt;&lt;font face=&quot;Comic Sans MS&quot;&gt;img&lt;/font&gt;&lt;/b&gt;" style="ellipse;whiteSpace=wrap;html=1;fillColor=#d5e8d4;fillStyle=auto;strokeColor=#82b366;shadow=0;sketch=1;curveFitting=1;jiggle=2;" parent="1" vertex="1">
          <mxGeometry x="500" y="180" width="120" height="80" as="geometry" />
        </mxCell>
        <mxCell id="EYEKu2959EoNq3203nXm-26" value="" style="edgeStyle=none;shape=link;rounded=0;orthogonalLoop=1;jettySize=auto;html=1;" parent="1" source="EYEKu2959EoNq3203nXm-23" target="EYEKu2959EoNq3203nXm-25" edge="1">
          <mxGeometry relative="1" as="geometry" />
        </mxCell>
        <mxCell id="EYEKu2959EoNq3203nXm-30" value="" style="edgeStyle=orthogonalEdgeStyle;rounded=0;orthogonalLoop=1;jettySize=auto;html=1;" parent="1" source="EYEKu2959EoNq3203nXm-23" target="EYEKu2959EoNq3203nXm-29" edge="1">
          <mxGeometry relative="1" as="geometry" />
        </mxCell>
        <mxCell id="EYEKu2959EoNq3203nXm-23" value="&lt;b&gt;&lt;font face=&quot;Comic Sans MS&quot;&gt;p&lt;/font&gt;&lt;/b&gt;" style="ellipse;whiteSpace=wrap;html=1;fillColor=#d5e8d4;fillStyle=auto;strokeColor=#82b366;sketch=1;curveFitting=1;jiggle=2;" parent="1" vertex="1">
          <mxGeometry x="220" y="180" width="120" height="80" as="geometry" />
        </mxCell>
        <mxCell id="EYEKu2959EoNq3203nXm-35" value="" style="edgeStyle=orthogonalEdgeStyle;rounded=0;orthogonalLoop=1;jettySize=auto;html=1;fontFamily=Comic Sans MS;" parent="1" source="EYEKu2959EoNq3203nXm-25" target="EYEKu2959EoNq3203nXm-34" edge="1">
          <mxGeometry relative="1" as="geometry" />
        </mxCell>
        <mxCell id="EYEKu2959EoNq3203nXm-25" value="&lt;b&gt;&lt;font face=&quot;Comic Sans MS&quot;&gt;span&lt;/font&gt;&lt;/b&gt;" style="ellipse;whiteSpace=wrap;html=1;fillColor=#e1d5e7;fillStyle=auto;strokeColor=#9673a6;sketch=1;curveFitting=1;jiggle=2;" parent="1" vertex="1">
          <mxGeometry x="110" y="360" width="120" height="80" as="geometry" />
        </mxCell>
        <mxCell id="EYEKu2959EoNq3203nXm-27" value="&lt;font face=&quot;Comic Sans MS&quot;&gt;font-size: 14px;&lt;br&gt;width: 100%;&lt;br&gt;&lt;/font&gt;" style="whiteSpace=wrap;html=1;fillStyle=auto;dashed=1;" parent="1" vertex="1">
          <mxGeometry x="600" y="30" width="120" height="120" as="geometry" />
        </mxCell>
        <mxCell id="EYEKu2959EoNq3203nXm-29" value="&lt;font face=&quot;Comic Sans MS&quot;&gt;&lt;font color=&quot;#999999&quot;&gt;font-size: 14px;&lt;br&gt;&lt;/font&gt;&lt;/font&gt;width: 50%;&lt;font face=&quot;Comic Sans MS&quot;&gt;&lt;font color=&quot;#999999&quot;&gt;&lt;br&gt;&lt;/font&gt;color: red;&lt;/font&gt;" style="whiteSpace=wrap;html=1;fillStyle=auto;dashed=1;" parent="1" vertex="1">
          <mxGeometry x="20" y="130" width="120" height="120" as="geometry" />
        </mxCell>
        <mxCell id="EYEKu2959EoNq3203nXm-31" value="&lt;font color=&quot;#999999&quot;&gt;font-size: 14px;&lt;br style=&quot;border-color: var(--border-color); font-family: &amp;quot;Comic Sans MS&amp;quot;;&quot;&gt;width: 100%;&lt;/font&gt;&lt;span style=&quot;font-family: &amp;quot;Comic Sans MS&amp;quot;;&quot;&gt;&lt;font color=&quot;#999999&quot;&gt;&lt;br&gt;&lt;/font&gt;display: none;&lt;/span&gt;" style="whiteSpace=wrap;html=1;fillStyle=auto;shadow=0;dashed=1;" parent="1" vertex="1">
          <mxGeometry x="700" y="210" width="120" height="120" as="geometry" />
        </mxCell>
        <mxCell id="EYEKu2959EoNq3203nXm-34" value="&lt;font color=&quot;#999999&quot;&gt;font-size: 14px;&lt;br style=&quot;border-color: var(--border-color);&quot;&gt;color: red;&lt;br&gt;width: 50%;&lt;br&gt;&lt;/font&gt;display: block;" style="whiteSpace=wrap;html=1;fillStyle=auto;dashed=1;fontFamily=Comic Sans MS;" parent="1" vertex="1">
          <mxGeometry x="320" y="370" width="120" height="120" as="geometry" />
        </mxCell>
      </root>
    </mxGraphModel>
  </diagram>
</mxfile>
